<?xml version="1.0" standalone="no"?>
<!DOCTYPE svg PUBLIC "-//W3C//DTD SVG 20010904//EN"
 "http://www.w3.org/TR/2001/REC-SVG-20010904/DTD/svg10.dtd">
<svg version="1.0" xmlns="http://www.w3.org/2000/svg"
 width="1168.000000pt" height="1168.000000pt" viewBox="0 0 1168.000000 1168.000000"
 preserveAspectRatio="xMidYMid meet">
<metadata>
Created by potrace 1.11, written by Peter Selinger 2001-2013
</metadata>
<g transform="translate(0.000000,1168.000000) scale(0.100000,-0.100000)"
fill="#000000" stroke="none">
<path d="M1463 10945 c-372 -68 -663 -359 -728 -730 -12 -68 -15 -171 -15
-456 l0 -369 -315 0 -315 0 0 -3555 0 -3555 314 0 315 0 4 -403 c4 -379 5
-407 26 -482 97 -347 372 -600 718 -660 75 -13 614 -15 4373 -15 3759 0 4298
2 4373 15 344 60 623 316 718 660 21 75 22 105 26 482 l4 403 -315 0 -316 0 0
185 0 185 630 0 630 0 0 3370 0 3370 -315 0 -315 0 0 369 c0 285 -3 388 -15
456 -60 343 -314 620 -660 717 l-80 23 -4335 2 c-3524 1 -4348 -1 -4407 -12z
m6410 -2940 c432 -57 675 -222 858 -586 71 -141 129 -357 129 -481 l0 -28
-260 0 c-200 0 -262 3 -265 13 -2 6 -15 55 -30 107 -67 243 -208 413 -398 480
-70 25 -213 50 -283 50 -568 0 -920 -494 -995 -1395 -6 -78 -10 -149 -8 -158
3 -13 16 -1 48 43 128 176 345 325 571 391 171 50 455 68 625 40 191 -32 401
-114 561 -221 83 -56 297 -262 309 -299 l6 -21 795 0 794 0 0 -100 0 -100
-739 0 -740 0 20 -57 c60 -172 89 -452 70 -665 -33 -371 -175 -681 -431 -939
-232 -235 -477 -340 -854 -369 -454 -34 -810 97 -1132 417 -264 263 -408 674
-444 1268 -5 94 -10 209 -10 258 l0 87 -720 0 -720 0 0 -965 0 -965 -280 0
-280 0 0 965 0 965 -1360 0 -1360 0 0 100 0 100 1360 0 1360 0 0 420 0 420
-495 0 -495 0 2 202 3 203 136 16 c385 48 618 121 734 230 96 90 176 244 230
439 15 52 28 101 30 108 3 9 54 12 210 12 l205 0 0 -1025 0 -1025 724 0 723 0
7 93 c78 1058 448 1726 1062 1920 77 24 206 52 284 60 93 10 340 6 443 -8z"/>
<path d="M7351 5995 c-71 -16 -161 -44 -161 -51 0 -2 170 -4 378 -4 253 1 371
4 360 10 -9 6 -52 20 -95 31 -104 28 -386 36 -482 14z"/>
<path d="M6850 5689 c-106 -134 -161 -328 -161 -569 0 -270 55 -448 199 -638
124 -165 289 -260 514 -297 297 -48 571 30 735 210 153 166 238 391 250 657
10 236 -40 444 -153 630 l-35 58 -654 0 -655 0 -40 -51z"/>
</g>
</svg>
